<svg width="24" height="20" viewBox="0 0 24 20" fill="none" xmlns="http://www.w3.org/2000/svg">
<path d="M15.7407 13.7407L11.7407 9.74072L7.74072 13.7407" stroke="#523BB1" stroke-width="1.2" stroke-linecap="round" stroke-linejoin="round"/>
<path d="M11.7407 9.74072V18.7407" stroke="#523BB1" stroke-width="1.2" stroke-linecap="round" stroke-linejoin="round"/>
<path d="M20.1307 16.1307C21.106 15.599 21.8765 14.7576 22.3206 13.7393C22.7646 12.7211 22.8569 11.5839 22.5829 10.5074C22.3089 9.43086 21.6842 8.47622 20.8074 7.79415C19.9305 7.11209 18.8515 6.74144 17.7407 6.74071H16.4807C16.178 5.56995 15.6138 4.48304 14.8306 3.5617C14.0474 2.64036 13.0655 1.90856 11.9588 1.42131C10.852 0.934071 9.64923 0.704065 8.4408 0.748589C7.23237 0.793113 6.04975 1.11101 4.98186 1.67837C3.91397 2.24574 2.98859 3.04781 2.2753 4.02429C1.56202 5.00077 1.07937 6.12624 0.863663 7.3161C0.647953 8.50596 0.704788 9.72924 1.0299 10.894C1.355 12.0587 1.93992 13.1346 2.74068 14.0407" stroke="#523BB1" stroke-width="1.2" stroke-linecap="round" stroke-linejoin="round"/>
<path d="M15.7407 13.7407L11.7407 9.74072L7.74072 13.7407" stroke="#523BB1" stroke-width="1.2" stroke-linecap="round" stroke-linejoin="round"/>
</svg>
